<?xml version="1.0" encoding="UTF-8"?>
<svg width="32" height="32" viewBox="0 0 32 32" fill="none" xmlns="http://www.w3.org/2000/svg">
  <!-- Purple background circle -->
  <circle cx="16" cy="16" r="16" fill="#6C55F9"/>
  
  <!-- White rocket -->
  <path d="M23 9.5C23 9.5 21.5 9 19.5 9C17.5 9 16 10.5 16 10.5L13.5 13L19 18.5L21.5 16C21.5 16 23 14.5 23 12.5C23 10.5 23 9.5 23 9.5Z" fill="white"/>
  <path d="M13 13.5L9.5 17C9.5 17 9 17.5 9 19.5C9 21.5 9.5 23 9.5 23C9.5 23 10.5 23 12.5 23C14.5 23 16 21.5 16 21.5L19.5 18L14 12.5L13 13.5Z" fill="white"/>
  <path d="M12.5 19.5L10.5 21.5M14.5 17.5L12.5 19.5" stroke="white" stroke-width="1.5" stroke-linecap="round"/>
  <circle cx="20" cy="12" r="1.5" fill="#6C55F9"/>
</svg>